<svg width="360" height="323" viewBox="0 0 360 323" fill="none" xmlns="http://www.w3.org/2000/svg">
<g clip-path="url(#clip0_53_2)">
<path d="M255.871 321.892C253.288 321.89 250.748 321.206 248.485 319.906L38.3623 199.785C34.7737 197.728 32.1123 194.267 30.9618 190.161C29.8113 186.056 30.2658 181.641 32.2256 177.885L120.899 8.40121C121.871 6.54202 123.185 4.90131 124.764 3.57275C126.344 2.24419 128.158 1.25381 130.103 0.658151C132.049 0.0624926 134.087 -0.126776 136.103 0.101153C138.118 0.329082 140.071 0.969743 141.85 1.98656L351.973 122.107C355.561 124.164 358.223 127.625 359.373 131.731C360.524 135.837 360.069 140.252 358.109 144.007L269.436 313.491C268.468 315.354 267.156 316.997 265.576 318.326C263.996 319.655 262.179 320.644 260.232 321.234C258.815 321.669 257.347 321.891 255.871 321.892ZM249.755 317.479C252.731 319.18 256.232 319.576 259.488 318.579C262.743 317.582 265.487 315.275 267.114 312.164L355.788 142.68C357.411 139.568 357.788 135.91 356.835 132.508C355.881 129.106 353.676 126.239 350.703 124.534L140.58 4.4133C137.604 2.71194 134.103 2.31612 130.847 3.31291C127.592 4.30969 124.848 6.61743 123.221 9.72848L34.5473 179.212C32.9236 182.324 32.547 185.982 33.5002 189.384C34.4535 192.786 36.6587 195.654 39.6321 197.358L249.755 317.479Z" fill="#F2F2F2"/>
<path d="M260.204 262.617C257.786 262.615 255.407 261.978 253.287 260.765L83.4084 163.651C81.7555 162.708 80.2968 161.434 79.1156 159.901C77.9344 158.368 77.054 156.607 76.5247 154.718C75.9954 152.829 75.8277 150.85 76.0311 148.893C76.2344 146.937 76.8049 145.041 77.71 143.315L130.668 42.0942C131.571 40.3676 132.791 38.844 134.258 37.6103C135.724 36.3765 137.409 35.4568 139.215 34.9037C141.022 34.3505 142.915 34.1748 144.786 34.3865C146.658 34.5983 148.471 35.1933 150.123 36.1376L320.001 133.252C321.653 134.196 323.11 135.471 324.291 137.004C325.471 138.536 326.351 140.297 326.88 142.186C327.409 144.074 327.577 146.053 327.375 148.009C327.172 149.966 326.603 151.861 325.7 153.587L325.506 153.477L325.7 153.587L272.741 254.808C271.517 257.168 269.706 259.14 267.499 260.514C265.293 261.888 262.772 262.615 260.204 262.617Z" fill="#F2F2F2"/>
<path d="M254.931 321.847H15.437C11.6366 321.843 7.99312 320.263 5.30585 317.454C2.61857 314.645 1.10697 310.836 1.10266 306.864V113.69C1.10697 109.717 2.61857 105.909 5.30585 103.1C7.99312 100.291 11.6366 98.7108 15.437 98.7063H254.931C258.731 98.7108 262.374 100.291 265.062 103.1C267.749 105.909 269.261 109.717 269.265 113.69V306.864C269.261 310.836 267.749 314.645 265.062 317.454C262.374 320.263 258.731 321.843 254.931 321.847Z" fill="white"/>
<path d="M254.931 323H15.437C11.3442 322.995 7.42047 321.294 4.52647 318.269C1.63248 315.243 0.00460763 311.142 0 306.864V113.69C0.00460763 109.412 1.63248 105.31 4.52647 102.285C7.42047 99.2601 11.3442 97.5585 15.437 97.5537H254.931C259.023 97.5585 262.947 99.2601 265.841 102.285C268.735 105.31 270.363 109.412 270.367 113.69V306.864C270.363 311.142 268.735 315.243 265.841 318.269C262.947 321.294 259.023 322.995 254.931 323ZM15.437 100.32C12.0459 100.324 8.79473 101.734 6.39685 104.24C3.99897 106.747 2.65016 110.145 2.64634 113.69V306.864C2.65016 310.409 3.99897 313.807 6.39685 316.313C8.79473 318.82 12.0459 320.23 15.437 320.234H254.931C258.322 320.23 261.573 318.82 263.971 316.313C266.368 313.807 267.717 310.409 267.721 306.864V113.69C267.717 110.145 266.368 106.747 263.971 104.24C261.573 101.734 258.322 100.324 254.931 100.32H15.437Z" fill="#E6E6E6"/>
<path d="M172.454 162.231C169.672 162.229 166.927 162.902 164.436 164.197C161.945 165.492 159.775 167.373 158.097 169.693C156.297 168.884 154.332 168.554 152.379 168.733C150.427 168.913 148.547 169.597 146.91 170.724C145.273 171.85 143.928 173.384 142.998 175.187C142.068 176.991 141.581 179.008 141.58 181.057H190.464C190.464 178.585 189.998 176.137 189.093 173.853C188.188 171.569 186.862 169.493 185.189 167.745C183.517 165.997 181.531 164.61 179.346 163.664C177.161 162.718 174.819 162.231 172.454 162.231Z" fill="#E6E6E6"/>
<path d="M65.3631 235.92C81.3808 235.92 94.3658 222.347 94.3658 205.604C94.3658 188.86 81.3808 175.287 65.3631 175.287C49.3454 175.287 36.3605 188.86 36.3605 205.604C36.3605 222.347 49.3454 235.92 65.3631 235.92Z" fill="#5F6F3A"/>
<path d="M235.242 268.081C234.178 268.344 233.089 268.475 231.996 268.473H38.3719C35.9873 268.478 33.6408 267.848 31.5532 266.643L32.0692 265.869L53.6722 233.352L85.6841 185.178L86.1516 184.473L91.1884 176.893C91.5269 176.383 91.9785 175.966 92.5047 175.679C93.0308 175.391 93.6158 175.24 94.2097 175.24C94.8035 175.24 95.3885 175.391 95.9147 175.679C96.4408 175.966 96.8925 176.383 97.231 176.893L113.965 202.07V202.075L123.809 216.893L147.309 252.254L182.95 199.074C183.29 198.567 183.741 198.152 184.266 197.866C184.791 197.581 185.375 197.431 185.967 197.431C186.559 197.431 187.143 197.581 187.668 197.866C188.193 198.152 188.644 198.567 188.984 199.074L211.848 233.186L213.162 235.145L235.242 268.081Z" fill="#BFD37A"/>
<path d="M133.962 193.666C130.529 193.663 127.143 194.493 124.069 196.091C120.995 197.688 118.318 200.01 116.249 202.872C114.027 201.873 111.603 201.466 109.194 201.688C106.785 201.91 104.466 202.753 102.446 204.143C100.426 205.533 98.7676 207.425 97.6199 209.651C96.4722 211.876 95.8711 214.364 95.8705 216.892H156.182C156.182 213.842 155.607 210.822 154.49 208.004C153.374 205.186 151.737 202.625 149.674 200.468C147.61 198.312 145.161 196.601 142.465 195.434C139.769 194.266 136.88 193.666 133.962 193.666Z" fill="#3F3D56"/>
<path d="M231.996 268.934H38.3719C36.46 268.936 34.5666 268.544 32.7999 267.78C31.0333 267.016 29.4281 265.895 28.0762 264.482C26.7243 263.069 25.6522 261.391 24.9214 259.545C24.1906 257.698 23.8153 255.719 23.817 253.72V138.351C23.8214 134.317 25.3562 130.45 28.0849 127.598C30.8135 124.746 34.513 123.141 38.3719 123.137H231.996C235.854 123.141 239.554 124.746 242.283 127.598C245.011 130.45 246.546 134.317 246.55 138.351V253.72C246.553 255.719 246.178 257.698 245.447 259.545C244.716 261.392 243.644 263.07 242.292 264.483C240.94 265.897 239.335 267.017 237.568 267.781C235.801 268.545 233.908 268.937 231.996 268.934ZM38.3719 124.059C34.7469 124.063 31.2716 125.57 28.7083 128.25C26.1451 130.929 24.7032 134.562 24.6991 138.351V253.72C24.6974 255.598 25.0499 257.457 25.7365 259.192C26.423 260.926 27.43 262.503 28.7 263.83C29.97 265.158 31.4779 266.21 33.1375 266.928C34.7972 267.646 36.5759 268.014 38.3719 268.012H231.996C233.792 268.014 235.571 267.646 237.23 266.929C238.89 266.211 240.398 265.159 241.668 263.831C242.938 262.504 243.945 260.927 244.632 259.192C245.318 257.457 245.67 255.598 245.668 253.72V138.351C245.664 134.562 244.222 130.929 241.659 128.25C239.096 125.57 235.621 124.063 231.996 124.059H38.3719Z" fill="#3F3D56"/>
</g>
<defs>
<clipPath id="clip0_53_2">
<rect width="360" height="323" fill="white"/>
</clipPath>
</defs>
</svg>
